<svg xmlns="http://www.w3.org/2000/svg" viewBox="0 0 1500 1050" role="img" aria-label="import 匿名排版结构示意"><style>text{font-family:'Microsoft YaHei','Segoe UI',sans-serif}*{vector-effect:non-scaling-stroke}</style><rect x="0" y="0" width="1500" height="1050" rx="0" fill="#f7f7fe" stroke="none"/><rect x="0" y="0" width="220" height="1050" rx="0" fill="#ffffff" stroke="#dfe2ea"/><text x="20" y="52" fill="#333644" font-size="27" font-weight="500">应用标题</text><rect x="20" y="92" width="180" height="34" rx="17" fill="#eeedff" stroke="none"/><text x="32" y="115" fill="#5867f5" font-size="17" font-weight="500">首页 / 当前页</text><text x="26" y="185" fill="#333644" font-size="21" font-weight="500">课程分组 1</text><text x="26" y="233" fill="#333644" font-size="21" font-weight="500">课程分组 2</text><text x="26" y="281" fill="#333644" font-size="21" font-weight="500">课程分组 3</text><text x="26" y="329" fill="#333644" font-size="21" font-weight="500">课程分组 4</text><rect x="16" y="970" width="188" height="58" rx="10" fill="#f5f6fa" stroke="#dfe2ea"/><text x="30" y="1005" fill="#333644" font-size="18" font-weight="500">底部状态区</text><rect x="0" y="0" width="1500" height="1050" rx="0" fill="#80818a" stroke="none"/><rect x="390" y="129" width="720" height="792" rx="15" fill="#ffffff" stroke="#dfe2ea"/><text x="420" y="174" fill="#333644" font-size="28" font-weight="500">导入音频或视频</text><text x="420" y="207" fill="#747987" font-size="21" font-weight="500">文件来源 → 语言 → 提交前说明</text><rect x="420" y="222" width="660" height="313" rx="15" fill="#f7f7fe" stroke="#dfe2ea"/><text x="640" y="315" fill="#5867f5" font-size="30" font-weight="500">拖放文件</text><text x="505" y="362" fill="#747987" font-size="22" font-weight="500">格式、大小和时长限制</text><rect x="638" y="434" width="220" height="34" rx="17" fill="#eeedff" stroke="none"/><text x="650" y="457" fill="#5867f5" font-size="17" font-weight="500">选择本地文件</text><path d="M420 565 L1080 565" stroke="#dfe2ea" stroke-width="2"/><rect x="420" y="597" width="660" height="46" rx="15" fill="#ffffff" stroke="#dfe2ea"/><text x="436" y="628" fill="#747987" font-size="21" font-weight="500">链接输入</text><rect x="934" y="604" width="135" height="34" rx="17" fill="#eeedff" stroke="none"/><text x="946" y="627" fill="#5867f5" font-size="17" font-weight="500">开始分析</text><rect x="420" y="707" width="660" height="141" rx="15" fill="#ffffff" stroke="#dfe2ea"/><text x="440" y="746" fill="#333644" font-size="23" font-weight="500">目标语言</text><rect x="440" y="776" width="620" height="41" rx="15" fill="#ffffff" stroke="#dfe2ea"/><text x="453" y="804" fill="#333644" font-size="20" font-weight="500">语言选择</text><text x="420" y="885" fill="#747987" font-size="19" font-weight="500">底部说明 · padding 30 · max-height 90vh</text></svg>