<svg xmlns="http://www.w3.org/2000/svg" viewBox="0 0 1500 1050" role="img" aria-label="settings 匿名排版结构示意"><style>text{font-family:'Microsoft YaHei','Segoe UI',sans-serif}*{vector-effect:non-scaling-stroke}</style><rect x="0" y="0" width="1500" height="1050" rx="0" fill="#f7f7fe" stroke="none"/><rect x="0" y="0" width="220" height="1050" rx="0" fill="#ffffff" stroke="#dfe2ea"/><text x="20" y="52" fill="#333644" font-size="27" font-weight="500">应用标题</text><rect x="20" y="92" width="180" height="34" rx="17" fill="#eeedff" stroke="none"/><text x="32" y="115" fill="#5867f5" font-size="17" font-weight="500">首页 / 当前页</text><text x="26" y="185" fill="#333644" font-size="21" font-weight="500">课程分组 1</text><text x="26" y="233" fill="#333644" font-size="21" font-weight="500">课程分组 2</text><text x="26" y="281" fill="#333644" font-size="21" font-weight="500">课程分组 3</text><text x="26" y="329" fill="#333644" font-size="21" font-weight="500">课程分组 4</text><rect x="16" y="970" width="188" height="58" rx="10" fill="#f5f6fa" stroke="#dfe2ea"/><text x="30" y="1005" fill="#333644" font-size="18" font-weight="500">底部状态区</text><rect x="0" y="0" width="1500" height="1050" rx="0" fill="#60616a" stroke="none"/><rect x="240" y="137" width="1020" height="776" rx="15" fill="#ffffff" stroke="#dfe2ea"/><path d="M460 137 L460 913" stroke="#dfe2ea" stroke-width="2"/><text x="260" y="179" fill="#333644" font-size="24" font-weight="500">×</text><text x="480" y="174" fill="#333644" font-size="23" font-weight="500">设置标题 16/24</text><text x="480" y="206" fill="#747987" font-size="19" font-weight="500">简短说明 · 右侧内容独立滚动</text><path d="M480 225 L1240 225" stroke="#dfe2ea" stroke-width="2"/><text x="272" y="270" fill="#333644" font-size="20" font-weight="500">常用设置</text><text x="272" y="316" fill="#333644" font-size="20" font-weight="500">语言</text><rect x="260" y="336" width="180" height="38" rx="10" fill="#eeedff" stroke="none"/><text x="272" y="362" fill="#5867f5" font-size="20" font-weight="500">音频设备</text><text x="272" y="408" fill="#333644" font-size="20" font-weight="500">本地模型</text><text x="272" y="454" fill="#333644" font-size="20" font-weight="500">更多设置</text><text x="480" y="279" fill="#333644" font-size="20" font-weight="500">音频来源</text><rect x="480" y="296" width="565" height="44" rx="15" fill="#ffffff" stroke="#dfe2ea"/><text x="495" y="325" fill="#333644" font-size="20" font-weight="500">设备选择</text><rect x="1056" y="300" width="165" height="34" rx="17" fill="#eeedff" stroke="none"/><text x="1068" y="323" fill="#5867f5" font-size="17" font-weight="500">输入测试</text><rect x="480" y="362" width="760" height="76" rx="12" fill="#f7f7fc" stroke="#dfe2ea"/><text x="500" y="393" fill="#333644" font-size="22" font-weight="500">设置名称</text><text x="500" y="419" fill="#747987" font-size="18" font-weight="500">说明文字</text><rect x="1181" y="387" width="36" height="22" rx="11" fill="#eeedff" stroke="#dfe2ea"/><rect x="480" y="460" width="760" height="76" rx="12" fill="#f7f7fc" stroke="#dfe2ea"/><text x="500" y="491" fill="#333644" font-size="22" font-weight="500">设置名称</text><text x="500" y="517" fill="#747987" font-size="18" font-weight="500">说明文字</text><rect x="1181" y="485" width="36" height="22" rx="11" fill="#eeedff" stroke="#dfe2ea"/><text x="480" y="851" fill="#5867f5" font-size="22" font-weight="500">内容 padding 20 · 导航固定 220</text><text x="480" y="885" fill="#5867f5" font-size="22" font-weight="500">1020 × 776；较小窗口四周留 24</text></svg>