<svg xmlns="http://www.w3.org/2000/svg" viewBox="0 0 1500 1050" role="img" aria-label="slides 匿名排版结构示意"><style>text{font-family:'Microsoft YaHei','Segoe UI',sans-serif}*{vector-effect:non-scaling-stroke}</style><rect x="0" y="0" width="1500" height="1050" rx="0" fill="#f7f7fe" stroke="none"/><rect x="0" y="0" width="75" height="1050" rx="0" fill="#ffffff" stroke="#dfe2ea"/><text x="17" y="52" fill="#333644" font-size="22" font-weight="500">LR</text><rect x="20" y="100" width="35" height="35" rx="9" fill="#eeedff" stroke="#dfe2ea"/><rect x="20" y="165" width="35" height="35" rx="9" fill="#f3f4f8" stroke="#dfe2ea"/><rect x="20" y="230" width="35" height="35" rx="9" fill="#f3f4f8" stroke="#dfe2ea"/><rect x="20" y="295" width="35" height="35" rx="9" fill="#f3f4f8" stroke="#dfe2ea"/><text x="100" y="67" fill="#333644" font-size="30" font-weight="500">课件 / PDF 面板（静态）</text><rect x="100" y="105" width="850" height="885" rx="15" fill="#ffffff" stroke="#dfe2ea"/><rect x="970" y="105" width="510" height="885" rx="15" fill="#ffffff" stroke="#dfe2ea"/><text x="990" y="145" fill="#333644" font-size="23" font-weight="500">关联字幕 / 笔记</text><rect x="250" y="165" width="550" height="730" rx="15" fill="#fbfcff" stroke="#dfe2ea"/><text x="305" y="240" fill="#333644" font-size="26" font-weight="500">PDF 页面按比例居中</text><rect x="305" y="286" width="410" height="6" rx="3" fill="#dce0e9" stroke="none"/><rect x="305" y="326" width="410" height="6" rx="3" fill="#dce0e9" stroke="none"/><rect x="305" y="366" width="410" height="6" rx="3" fill="#dce0e9" stroke="none"/><rect x="305" y="406" width="410" height="6" rx="3" fill="#dce0e9" stroke="none"/><rect x="305" y="446" width="410" height="6" rx="3" fill="#dce0e9" stroke="none"/><rect x="305" y="486" width="410" height="6" rx="3" fill="#dce0e9" stroke="none"/><rect x="305" y="526" width="410" height="6" rx="3" fill="#dce0e9" stroke="none"/><rect x="305" y="566" width="410" height="6" rx="3" fill="#dce0e9" stroke="none"/><rect x="305" y="606" width="410" height="6" rx="3" fill="#dce0e9" stroke="none"/><rect x="305" y="646" width="287" height="6" rx="3" fill="#dce0e9" stroke="none"/><rect x="370" y="924" width="330" height="34" rx="17" fill="#eeedff" stroke="none"/><text x="382" y="947" fill="#5867f5" font-size="17" font-weight="500">页码 · 缩放 · 全屏</text><text x="990" y="205" fill="#747987" font-size="20" font-weight="500">页码来源与笔记关联</text><rect x="990" y="247" width="450" height="6" rx="3" fill="#dce0e9" stroke="none"/><rect x="990" y="277" width="450" height="6" rx="3" fill="#dce0e9" stroke="none"/><rect x="990" y="307" width="450" height="6" rx="3" fill="#dce0e9" stroke="none"/><rect x="990" y="337" width="450" height="6" rx="3" fill="#dce0e9" stroke="none"/><rect x="990" y="367" width="450" height="6" rx="3" fill="#dce0e9" stroke="none"/><rect x="990" y="397" width="450" height="6" rx="3" fill="#dce0e9" stroke="none"/><rect x="990" y="427" width="450" height="6" rx="3" fill="#dce0e9" stroke="none"/><rect x="990" y="457" width="450" height="6" rx="3" fill="#dce0e9" stroke="none"/><rect x="990" y="487" width="450" height="6" rx="3" fill="#dce0e9" stroke="none"/><rect x="990" y="517" width="450" height="6" rx="3" fill="#dce0e9" stroke="none"/><rect x="990" y="547" width="450" height="6" rx="3" fill="#dce0e9" stroke="none"/><rect x="990" y="577" width="315" height="6" rx="3" fill="#dce0e9" stroke="none"/></svg>